<svg xmlns="http://www.w3.org/2000/svg" xml:space="preserve" fill-rule="evenodd" stroke-linejoin="round" stroke-miterlimit="2" clip-rule="evenodd" viewBox="0 0 1302 1299"><path fill="#F7F7F7" d="M580.349 1298.047C254.242 1262.812 0 986.326 0 650.919 0 291.667 291.667 0 650.919 0s650.919 291.667 650.919 650.919c0 331.322-248.087 605.149-568.466 645.734a23 23 0 0 1-1.766.178 22.86 22.86 0 0 1-16.59-5.684 22.86 22.86 0 0 1-7.765-17.521v-191.762a446 446 0 0 1-55.54 3.461c-15.444 0-30.704-.793-45.742-2.342v192.306c0 11.176-8.018 20.495-18.611 22.512a22.9 22.9 0 0 1-7.008.247Zm172.734-50.645c285.382-48.601 502.921-297.342 502.921-596.484 0-333.956-271.13-605.085-605.085-605.085S45.834 316.963 45.834 650.918c0 303.105 223.343 554.466 514.302 598.31v-173.415c-200.184-42.223-350.637-220.031-350.637-432.701 0-61.243 12.482-119.594 35.029-172.651 27.175-66.732 89.789-113.053 162.268-113.053 77.746 0 144.269 53.497 167.664 128.026h247.453q.501 0 1.003.03s42.558 2.494 68.081 37.304c10.615 14.478 18.55 34.606 18.55 62.864l-.113-.084-.19 3.275-1.136 3.63-2.358 3.844-3.978 3.545-4.203 1.937a16.9 16.9 0 0 1-5.785.703c-.781-.007-4.228-.037-8.226-.05-7.575-.024-19.536-.04-34.48-.05-.3 47.081-66.61 49.592-66.61 49.592H551.213c-32.058 48.061-84.954 79.354-144.416 79.354a167.6 167.6 0 0 1-40.407-4.926c-12.276-3.046-19.77-15.485-16.724-27.76s15.485-19.77 27.76-16.724a121.8 121.8 0 0 0 29.371 3.577c72.611 0 130.792-63.634 130.792-141.128s-58.18-141.128-130.792-141.128c-53.756 0-99.707 35.057-119.843 84.564l-.055.137-.172.426q-.21.522-.442 1.028c-19.935 47.277-30.95 99.22-30.95 153.715 0 218.767 177.611 396.379 396.379 396.379 196.209 0 359.321-142.864 390.865-330.161h-49.427c-18.351 99.792-105.862 175.511-210.926 175.511-112.325 0-204.588-86.547-213.723-196.531-1.047-12.605 8.337-23.688 20.941-24.735a23 23 0 0 1 1.893-.079h381.095q.653-.019 1.314 0h94.759q1.304-.016 2.633.12c12.582 1.293 21.747 12.558 20.453 25.14-19.395 188.686-157.621 342.376-338.506 384.872v173.773ZM581.831 519.184a199 199 0 0 1 1.589 25.185c0 8.262-.506 16.396-1.487 24.37 61.101-.05 235.356-.18 292.442-.077-1.931-10.765-5.71-19.272-10.598-25.938-14.955-20.398-39.163-23.241-42.494-23.54zm36.287 190.146c17.594 74.319 84.439 129.678 164.106 129.678 79.666 0 146.511-55.358 164.106-129.678H618.119Zm262.995-111.402a16.88 16.88 0 0 1-5.318-12.297q0-.478-.004-.952c-.356 4.342.754 9.03 5.322 13.248ZM426.504 486.305c17.858 0 32.357 14.499 32.357 32.357s-14.499 32.357-32.357 32.357-32.357-14.499-32.357-32.357 14.499-32.357 32.357-32.357"/></svg>